<svg width="111" height="37" viewBox="0 0 111 37" fill="none" xmlns="http://www.w3.org/2000/svg">
<path d="M7.9 10.84C7.9 11.9867 7.63333 12.8 7.1 13.28C6.58 13.76 5.71333 14 4.5 14H0.7V-9.53674e-07H4.26C5.44667 -9.53674e-07 6.31333 0.239999 6.86 0.719999C7.42 1.2 7.7 2 7.7 3.12V4.26C7.7 5.28667 7.33333 6.06 6.6 6.58C7.46667 7.06 7.9 7.88 7.9 9.04V10.84ZM5.96 2.94C5.96 2.43333 5.84 2.06667 5.6 1.84C5.37333 1.61333 5.00667 1.5 4.5 1.5H2.44V5.92H4.5C4.91333 5.92 5.26 5.78667 5.54 5.52C5.82 5.25333 5.96 4.9 5.96 4.46V2.94ZM6.16 8.86C6.16 8.42 6.02667 8.07333 5.76 7.82C5.49333 7.55333 5.14 7.42 4.7 7.42H2.44V12.5H4.68C5.18667 12.5 5.56 12.3867 5.8 12.16C6.04 11.92 6.16 11.5467 6.16 11.04V8.86ZM16.6106 8.2H14.8306V14H13.0906V-9.53674e-07H16.6706C17.804 -9.53674e-07 18.6573 0.253332 19.2306 0.759999C19.8173 1.25333 20.1106 2.04 20.1106 3.12V5.04C20.1106 6.54667 19.5106 7.48667 18.3106 7.86L21.0906 14H19.1906L16.6106 8.2ZM18.3706 2.94C18.3706 2.43333 18.2506 2.06667 18.0106 1.84C17.784 1.61333 17.4173 1.5 16.9106 1.5H14.8306V6.7H16.9106C17.4173 6.7 17.784 6.58667 18.0106 6.36C18.2506 6.12 18.3706 5.74667 18.3706 5.24V2.94ZM24.6813 14V12.54H26.0813V1.46H24.6813V-9.53674e-07H29.2213V1.46H27.8213V12.54H29.2213V14H24.6813ZM37.2489 1.52V14H35.5089V1.52H32.4289V-9.53674e-07H40.3289V1.52H37.2489ZM50.012 10.6C50.012 11.7333 49.6987 12.5867 49.072 13.16C48.4587 13.72 47.572 14 46.412 14H43.772V12.48H46.612C47.1054 12.48 47.5054 12.3333 47.812 12.04C48.1187 11.7467 48.272 11.3933 48.272 10.98V8.9C48.272 8.5 48.1654 8.18 47.952 7.94C47.752 7.68667 47.4454 7.56 47.032 7.56H46.632C45.6454 7.56 44.8654 7.27333 44.292 6.7C43.7187 6.11333 43.432 5.26667 43.432 4.16V3.4C43.432 2.26667 43.7387 1.42 44.352 0.86C44.9787 0.286666 45.872 -9.53674e-07 47.032 -9.53674e-07H49.692V1.52H46.832C46.3387 1.52 45.9387 1.66667 45.632 1.96C45.3254 2.25333 45.172 2.60667 45.172 3.02V4.54C45.172 4.95333 45.3054 5.3 45.572 5.58C45.8387 5.84667 46.1854 5.98 46.612 5.98H47.012C47.9587 5.98 48.692 6.25333 49.212 6.8C49.7454 7.34667 50.012 8.17333 50.012 9.28V10.6ZM9.1 37H6.38L5.04 30.92L3.58 37H0.98L0.3 23H1.84L2.44 35.9L4.24 28.9H5.88L7.7 35.9L8.32 23H9.78L9.1 37ZM20.3373 37V30.56H16.2173V37H14.4773V23H16.2173V29.08H20.3373V23H22.0773V37H20.3373ZM35.1534 33.6C35.1534 34.7333 34.8401 35.5867 34.2134 36.16C33.6001 36.72 32.7134 37 31.5534 37H30.8734C29.7134 37 28.8201 36.72 28.1934 36.16C27.5801 35.5867 27.2734 34.7333 27.2734 33.6V26.4C27.2734 25.2667 27.5801 24.42 28.1934 23.86C28.8201 23.2867 29.7134 23 30.8734 23H31.5534C32.7134 23 33.6001 23.2867 34.2134 23.86C34.8401 24.42 35.1534 25.2667 35.1534 26.4V33.6ZM33.4134 26.02C33.4134 25.6067 33.2601 25.2533 32.9534 24.96C32.6468 24.6667 32.2468 24.52 31.7534 24.52H30.6734C30.1801 24.52 29.7801 24.6667 29.4734 24.96C29.1668 25.2533 29.0134 25.6067 29.0134 26.02V33.98C29.0134 34.3933 29.1668 34.7467 29.4734 35.04C29.7801 35.3333 30.1801 35.48 30.6734 35.48H31.7534C32.2468 35.48 32.6468 35.3333 32.9534 35.04C33.2601 34.7467 33.4134 34.3933 33.4134 33.98V26.02ZM54.8677 33.84C54.8677 34.9867 54.601 35.8 54.0677 36.28C53.5477 36.76 52.681 37 51.4677 37H47.5477V23H51.2277C52.4277 23 53.3343 23.2467 53.9477 23.74C54.561 24.22 54.8677 25.0133 54.8677 26.12V33.84ZM53.1277 25.94C53.1277 25.5 52.9943 25.1533 52.7277 24.9C52.461 24.6333 52.1077 24.5 51.6677 24.5H49.2877V35.5H51.6477C52.1543 35.5 52.5277 35.3867 52.7677 35.16C53.0077 34.92 53.1277 34.5467 53.1277 34.04V25.94ZM60.075 37V23H66.635V24.46H61.815V29.04H66.135V30.5H61.815V35.54H66.635V37H60.075ZM77.5081 33.6C77.5081 34.7333 77.1948 35.5867 76.5681 36.16C75.9548 36.72 75.0681 37 73.9081 37H71.2681V35.48H74.1081C74.6015 35.48 75.0015 35.3333 75.3081 35.04C75.6148 34.7467 75.7681 34.3933 75.7681 33.98V31.9C75.7681 31.5 75.6615 31.18 75.4481 30.94C75.2481 30.6867 74.9415 30.56 74.5281 30.56H74.1281C73.1415 30.56 72.3615 30.2733 71.7881 29.7C71.2148 29.1133 70.9281 28.2667 70.9281 27.16V26.4C70.9281 25.2667 71.2348 24.42 71.8481 23.86C72.4748 23.2867 73.3681 23 74.5281 23H77.1881V24.52H74.3281C73.8348 24.52 73.4348 24.6667 73.1281 24.96C72.8215 25.2533 72.6681 25.6067 72.6681 26.02V27.54C72.6681 27.9533 72.8015 28.3 73.0681 28.58C73.3348 28.8467 73.6815 28.98 74.1081 28.98H74.5081C75.4548 28.98 76.1881 29.2533 76.7081 29.8C77.2415 30.3467 77.5081 31.1733 77.5081 32.28V33.6ZM81.5172 37V35.54H82.9172V24.46H81.5172V23H86.0572V24.46H84.6572V35.54H86.0572V37H81.5172ZM94.0648 37C92.9048 37 92.0115 36.72 91.3848 36.16C90.7715 35.5867 90.4648 34.7333 90.4648 33.6V26.4C90.4648 25.2667 90.7715 24.42 91.3848 23.86C92.0115 23.2867 92.9048 23 94.0648 23H96.7648V24.52H93.8648C93.3715 24.52 92.9715 24.6667 92.6648 24.96C92.3582 25.2533 92.2048 25.6067 92.2048 26.02V33.98C92.2048 34.3933 92.3582 34.7467 92.6648 35.04C92.9715 35.3333 93.3715 35.48 93.8648 35.48H95.7048V31.14H94.0248V29.64H97.3648V37H94.0648ZM107.15 37L104.09 24.48V37H102.47V23H105.31L108.39 35.52V23H110.01V37H107.15Z" fill="white"/>
</svg>
