<svg width="200" height="200" viewBox="0 0 200 200" fill="none" xmlns="http://www.w3.org/2000/svg">
<rect width="200" height="200" rx="3" fill="#1E1E1E"/>
<path d="M52.9 73.84C52.9 74.9867 52.6333 75.8 52.1 76.28C51.58 76.76 50.7133 77 49.5 77H45.7V63H49.26C50.4467 63 51.3133 63.24 51.86 63.72C52.42 64.2 52.7 65 52.7 66.12V67.26C52.7 68.2867 52.3333 69.06 51.6 69.58C52.4667 70.06 52.9 70.88 52.9 72.04V73.84ZM50.96 65.94C50.96 65.4333 50.84 65.0667 50.6 64.84C50.3733 64.6133 50.0067 64.5 49.5 64.5H47.44V68.92H49.5C49.9133 68.92 50.26 68.7867 50.54 68.52C50.82 68.2533 50.96 67.9 50.96 67.46V65.94ZM51.16 71.86C51.16 71.42 51.0267 71.0733 50.76 70.82C50.4933 70.5533 50.14 70.42 49.7 70.42H47.44V75.5H49.68C50.1867 75.5 50.56 75.3867 50.8 75.16C51.04 74.92 51.16 74.5467 51.16 74.04V71.86ZM61.6106 71.2H59.8306V77H58.0906V63H61.6706C62.804 63 63.6573 63.2533 64.2306 63.76C64.8173 64.2533 65.1106 65.04 65.1106 66.12V68.04C65.1106 69.5467 64.5106 70.4867 63.3106 70.86L66.0906 77H64.1906L61.6106 71.2ZM63.3706 65.94C63.3706 65.4333 63.2506 65.0667 63.0106 64.84C62.784 64.6133 62.4173 64.5 61.9106 64.5H59.8306V69.7H61.9106C62.4173 69.7 62.784 69.5867 63.0106 69.36C63.2506 69.12 63.3706 68.7467 63.3706 68.24V65.94ZM69.6813 77V75.54H71.0813V64.46H69.6813V63H74.2213V64.46H72.8213V75.54H74.2213V77H69.6813ZM82.2489 64.52V77H80.5089V64.52H77.4289V63H85.3289V64.52H82.2489ZM95.012 73.6C95.012 74.7333 94.6987 75.5867 94.072 76.16C93.4587 76.72 92.572 77 91.412 77H88.772V75.48H91.612C92.1054 75.48 92.5054 75.3333 92.812 75.04C93.1187 74.7467 93.272 74.3933 93.272 73.98V71.9C93.272 71.5 93.1654 71.18 92.952 70.94C92.752 70.6867 92.4454 70.56 92.032 70.56H91.632C90.6454 70.56 89.8654 70.2733 89.292 69.7C88.7187 69.1133 88.432 68.2667 88.432 67.16V66.4C88.432 65.2667 88.7387 64.42 89.352 63.86C89.9787 63.2867 90.872 63 92.032 63H94.692V64.52H91.832C91.3387 64.52 90.9387 64.6667 90.632 64.96C90.3254 65.2533 90.172 65.6067 90.172 66.02V67.54C90.172 67.9533 90.3054 68.3 90.572 68.58C90.8387 68.8467 91.1854 68.98 91.612 68.98H92.012C92.9587 68.98 93.692 69.2533 94.212 69.8C94.7454 70.3467 95.012 71.1733 95.012 72.28V73.6ZM54.1 100H51.38L50.04 93.92L48.58 100H45.98L45.3 86H46.84L47.44 98.9L49.24 91.9H50.88L52.7 98.9L53.32 86H54.78L54.1 100ZM65.3373 100V93.56H61.2173V100H59.4773V86H61.2173V92.08H65.3373V86H67.0773V100H65.3373ZM80.1534 96.6C80.1534 97.7333 79.8401 98.5867 79.2134 99.16C78.6001 99.72 77.7134 100 76.5534 100H75.8734C74.7134 100 73.8201 99.72 73.1934 99.16C72.5801 98.5867 72.2734 97.7333 72.2734 96.6V89.4C72.2734 88.2667 72.5801 87.42 73.1934 86.86C73.8201 86.2867 74.7134 86 75.8734 86H76.5534C77.7134 86 78.6001 86.2867 79.2134 86.86C79.8401 87.42 80.1534 88.2667 80.1534 89.4V96.6ZM78.4134 89.02C78.4134 88.6067 78.2601 88.2533 77.9534 87.96C77.6468 87.6667 77.2468 87.52 76.7534 87.52H75.6734C75.1801 87.52 74.7801 87.6667 74.4734 87.96C74.1668 88.2533 74.0134 88.6067 74.0134 89.02V96.98C74.0134 97.3933 74.1668 97.7467 74.4734 98.04C74.7801 98.3333 75.1801 98.48 75.6734 98.48H76.7534C77.2468 98.48 77.6468 98.3333 77.9534 98.04C78.2601 97.7467 78.4134 97.3933 78.4134 96.98V89.02ZM99.8677 96.84C99.8677 97.9867 99.601 98.8 99.0677 99.28C98.5477 99.76 97.681 100 96.4677 100H92.5477V86H96.2277C97.4277 86 98.3343 86.2467 98.9477 86.74C99.561 87.22 99.8677 88.0133 99.8677 89.12V96.84ZM98.1277 88.94C98.1277 88.5 97.9943 88.1533 97.7277 87.9C97.461 87.6333 97.1077 87.5 96.6677 87.5H94.2877V98.5H96.6477C97.1543 98.5 97.5277 98.3867 97.7677 98.16C98.0077 97.92 98.1277 97.5467 98.1277 97.04V88.94ZM105.075 100V86H111.635V87.46H106.815V92.04H111.135V93.5H106.815V98.54H111.635V100H105.075ZM122.508 96.6C122.508 97.7333 122.195 98.5867 121.568 99.16C120.955 99.72 120.068 100 118.908 100H116.268V98.48H119.108C119.601 98.48 120.001 98.3333 120.308 98.04C120.615 97.7467 120.768 97.3933 120.768 96.98V94.9C120.768 94.5 120.661 94.18 120.448 93.94C120.248 93.6867 119.941 93.56 119.528 93.56H119.128C118.141 93.56 117.361 93.2733 116.788 92.7C116.215 92.1133 115.928 91.2667 115.928 90.16V89.4C115.928 88.2667 116.235 87.42 116.848 86.86C117.475 86.2867 118.368 86 119.528 86H122.188V87.52H119.328C118.835 87.52 118.435 87.6667 118.128 87.96C117.821 88.2533 117.668 88.6067 117.668 89.02V90.54C117.668 90.9533 117.801 91.3 118.068 91.58C118.335 91.8467 118.681 91.98 119.108 91.98H119.508C120.455 91.98 121.188 92.2533 121.708 92.8C122.241 93.3467 122.508 94.1733 122.508 95.28V96.6ZM126.517 100V98.54H127.917V87.46H126.517V86H131.057V87.46H129.657V98.54H131.057V100H126.517ZM139.065 100C137.905 100 137.012 99.72 136.385 99.16C135.772 98.5867 135.465 97.7333 135.465 96.6V89.4C135.465 88.2667 135.772 87.42 136.385 86.86C137.012 86.2867 137.905 86 139.065 86H141.765V87.52H138.865C138.372 87.52 137.972 87.6667 137.665 87.96C137.358 88.2533 137.205 88.6067 137.205 89.02V96.98C137.205 97.3933 137.358 97.7467 137.665 98.04C137.972 98.3333 138.372 98.48 138.865 98.48H140.705V94.14H139.025V92.64H142.365V100H139.065ZM152.15 100L149.09 87.48V100H147.47V86H150.31L153.39 98.52V86H155.01V100H152.15Z" fill="white"/>
</svg>
