<svg width="117" height="35" viewBox="0 0 117 35" fill="none" xmlns="http://www.w3.org/2000/svg">
<path d="M0.467384 9.32617C0.476173 11.1719 1.67149 13.2021 5.60899 13.2021C9.12461 13.2021 10.8033 11.4971 10.8033 9.15918C10.8033 6.68066 9.08067 5.82812 7.41953 5.58203L5.88145 5.34473C4.90586 5.19531 4.31699 4.93164 4.31699 4.41309C4.31699 3.90332 4.7125 3.47266 5.65293 3.47266C6.71641 3.47266 7.19981 4.10547 7.21738 4.60645H10.5572C10.5572 2.73438 9.03672 0.80957 5.64414 0.80957C2.65586 0.80957 0.660744 2.2334 0.660744 4.71191C0.660744 6.93555 2.09336 7.92871 4.0709 8.28027L5.5211 8.53516C6.60215 8.72852 7.19981 8.93945 7.19981 9.55469C7.19981 10.0469 6.81309 10.4951 5.68809 10.4951C4.53672 10.4951 3.94785 9.88867 3.93027 9.32617H0.467384ZM14.0975 1.00293V13H17.7801V9.75684H19.5203C22.5613 9.75684 23.9939 7.75293 23.9939 5.41504C23.9939 3.12109 22.6053 1.00293 19.573 1.00293H14.0975ZM17.7625 3.72754H18.5711C19.5906 3.72754 20.2674 4.30762 20.2674 5.41504C20.2674 6.49609 19.5906 7.10254 18.5711 7.10254H17.7625V3.72754ZM29.292 13L29.8281 10.7324H33.1064L33.625 13H37.5625L33.959 1.00293H29.2832L25.6445 13H29.292ZM31.5859 4.05273L32.5176 8.13965H30.4346L31.4014 4.05273H31.5859ZM43.757 13V7.09375H43.8977L48.0109 13H50.7531V1.00293H47.3693V6.80371H47.2287L43.1418 1.00293H40.3732V13H43.757ZM58.2748 13V1.00293H54.5834V13H58.2748ZM64.733 13L65.2691 10.7324H68.5475L69.066 13H73.0035L69.4 1.00293H64.7242L61.0855 13H64.733ZM67.027 4.05273L67.9586 8.13965H65.8756L66.8424 4.05273H67.027ZM81.3162 1.00293H75.8143V13H79.4266V9.00098H80.3494L82.2742 13H86.326L83.9705 8.53516C84.6473 8.22754 86.0711 7.12012 86.0711 5.13379C86.0711 2.65527 84.4539 1.00293 81.3162 1.00293ZM79.4266 6.54004V3.64844H80.7537C81.5272 3.64844 82.2654 4.13184 82.2654 5.11621C82.2654 6.0918 81.5623 6.54004 80.7537 6.54004H79.4266ZM89.3389 1.00293V13H94.5508C98.3828 13 100.062 10.5566 100.062 6.92676C100.062 3.3584 98.4443 1.00293 94.5508 1.00293H89.3389ZM93.0303 3.8418H93.874C95.957 3.8418 96.2822 5.46777 96.2822 7.03223C96.2822 9.88867 95.0957 10.1611 93.874 10.1611H93.0303V3.8418ZM102.811 9.32617C102.82 11.1719 104.015 13.2021 107.952 13.2021C111.468 13.2021 113.147 11.4971 113.147 9.15918C113.147 6.68066 111.424 5.82812 109.763 5.58203L108.225 5.34473C107.249 5.19531 106.66 4.93164 106.66 4.41309C106.66 3.90332 107.056 3.47266 107.996 3.47266C109.06 3.47266 109.543 4.10547 109.561 4.60645H112.901C112.901 2.73438 111.38 0.80957 107.988 0.80957C104.999 0.80957 103.004 2.2334 103.004 4.71191C103.004 6.93555 104.437 7.92871 106.414 8.28027L107.864 8.53516C108.946 8.72852 109.543 8.93945 109.543 9.55469C109.543 10.0469 109.156 10.4951 108.031 10.4951C106.88 10.4951 106.291 9.88867 106.274 9.32617H102.811ZM5.90781 34L8.43027 24.5869H8.48301L11.0055 34H12.3678L15.6813 22.0029H13.9762L11.6559 31.3896H11.6031L9.23887 22.0029H7.67442L5.29258 31.3896H5.24863L2.92832 22.0029H1.23203L4.52793 34H5.90781ZM28.16 34V22.0029H26.6219V27.1094H20.5838V22.0029H19.0457V34H20.5838V28.4717H26.6219V34H28.16ZM33.8975 27.1709C33.8975 24.4902 35.3213 23.1279 37.167 23.1279C39.0215 23.1279 40.4365 24.4902 40.4365 27.1709V28.9463C40.4365 31.6357 39.0215 32.875 37.167 32.875C35.3213 32.875 33.8975 31.6357 33.8975 28.9463V27.1709ZM32.3594 28.9463C32.3594 32.3389 34.2402 34.2549 37.1494 34.2549C40.0674 34.2549 41.9746 32.3389 41.9746 28.9463V27.1797C41.9746 23.7695 40.0938 21.748 37.1846 21.748C34.2754 21.748 32.3594 23.7695 32.3594 27.1797V28.9463ZM51.5863 22.0029V34H55.4359C58.9164 34 60.7094 31.9258 60.7094 27.9971C60.7094 24.0596 58.9252 22.0029 55.4359 22.0029H51.5863ZM53.1244 23.374H55.3481C57.8969 23.374 59.1186 24.9385 59.1186 27.9971C59.1186 31.1436 57.8354 32.6289 55.3481 32.6289H53.1244V23.374ZM71.94 32.6289H66.2711V28.542H71.6236V27.2061H66.2711V23.374H71.94V22.0029H64.7418V34H71.94V32.6289ZM75.2869 30.7656C75.3309 32.3213 76.4295 34.2549 79.6111 34.2549C82.1072 34.2549 84.0848 33.0244 84.0848 30.6602C84.0848 28.7354 82.8104 27.8828 80.9647 27.3994L78.8904 26.8457C77.7391 26.5557 77.2029 25.9229 77.2029 25.0703C77.2029 23.7871 78.284 23.0752 79.7693 23.0752C81.4481 23.0752 82.327 23.9805 82.4324 25.1318H83.9529C83.9002 22.8027 81.8436 21.7217 79.8045 21.7217C77.6512 21.7217 75.6473 22.9258 75.6473 25.1758C75.6473 27.0479 77.0272 27.9531 78.451 28.3223L80.5604 28.876C81.8963 29.2188 82.5203 29.7812 82.5203 30.7744C82.5203 32.084 81.4481 32.8926 79.7781 32.8926C77.9324 32.8926 76.9393 31.9258 76.825 30.7656H75.2869ZM89.6904 34V22.0029H88.1523V34H89.6904ZM103.118 25.6592C102.96 23.3301 101.211 21.748 98.6535 21.748C95.674 21.748 93.8898 23.752 93.8898 27.0215V28.7969C93.8898 32.2773 95.5686 34.2549 98.6887 34.2549C101.29 34.2549 103.145 32.5146 103.145 30.2207V27.751H98.5568V29.0869H101.651V30.2471C101.651 31.8027 100.455 32.875 98.6975 32.875C96.5617 32.875 95.4191 31.3984 95.4191 28.7969V27.0215C95.4191 24.5693 96.6145 23.1279 98.6535 23.1279C100.315 23.1279 101.404 24.0771 101.598 25.6592H103.118ZM108.829 34V24.6221H108.865L114.964 34H116.441V22.0029H114.973V31.3721H114.938L108.838 22.0029H107.362V34H108.829Z" fill="white"/>
</svg>
