<svg width="200" height="200" viewBox="0 0 200 200" fill="none" xmlns="http://www.w3.org/2000/svg">
<rect width="200" height="200" rx="3" fill="#1E1E1E"/>
<path d="M40.4674 77.3262C40.4762 79.1719 41.6715 81.2021 45.609 81.2021C49.1246 81.2021 50.8033 79.4971 50.8033 77.1592C50.8033 74.6807 49.0807 73.8281 47.4195 73.582L45.8814 73.3447C44.9059 73.1953 44.317 72.9316 44.317 72.4131C44.317 71.9033 44.7125 71.4727 45.6529 71.4727C46.7164 71.4727 47.1998 72.1055 47.2174 72.6064H50.5572C50.5572 70.7344 49.0367 68.8096 45.6441 68.8096C42.6559 68.8096 40.6607 70.2334 40.6607 72.7119C40.6607 74.9355 42.0934 75.9287 44.0709 76.2803L45.5211 76.5352C46.6021 76.7285 47.1998 76.9395 47.1998 77.5547C47.1998 78.0469 46.8131 78.4951 45.6881 78.4951C44.5367 78.4951 43.9479 77.8887 43.9303 77.3262H40.4674ZM54.0975 69.0029V81H57.7801V77.7568H59.5203C62.5613 77.7568 63.9939 75.7529 63.9939 73.415C63.9939 71.1211 62.6053 69.0029 59.573 69.0029H54.0975ZM57.7625 71.7275H58.5711C59.5906 71.7275 60.2674 72.3076 60.2674 73.415C60.2674 74.4961 59.5906 75.1025 58.5711 75.1025H57.7625V71.7275ZM69.292 81L69.8281 78.7324H73.1064L73.625 81H77.5625L73.959 69.0029H69.2832L65.6445 81H69.292ZM71.5859 72.0527L72.5176 76.1396H70.4346L71.4014 72.0527H71.5859ZM83.757 81V75.0938H83.8977L88.0109 81H90.7531V69.0029H87.3693V74.8037H87.2287L83.1418 69.0029H80.3732V81H83.757ZM98.2748 81V69.0029H94.5834V81H98.2748ZM104.733 81L105.269 78.7324H108.547L109.066 81H113.004L109.4 69.0029H104.724L101.086 81H104.733ZM107.027 72.0527L107.959 76.1396H105.876L106.842 72.0527H107.027ZM121.316 69.0029H115.814V81H119.427V77.001H120.349L122.274 81H126.326L123.971 76.5352C124.647 76.2275 126.071 75.1201 126.071 73.1338C126.071 70.6553 124.454 69.0029 121.316 69.0029ZM119.427 74.54V71.6484H120.754C121.527 71.6484 122.265 72.1318 122.265 73.1162C122.265 74.0918 121.562 74.54 120.754 74.54H119.427ZM129.339 69.0029V81H134.551C138.383 81 140.062 78.5566 140.062 74.9268C140.062 71.3584 138.444 69.0029 134.551 69.0029H129.339ZM133.03 71.8418H133.874C135.957 71.8418 136.282 73.4678 136.282 75.0322C136.282 77.8887 135.096 78.1611 133.874 78.1611H133.03V71.8418ZM142.811 77.3262C142.82 79.1719 144.015 81.2021 147.952 81.2021C151.468 81.2021 153.147 79.4971 153.147 77.1592C153.147 74.6807 151.424 73.8281 149.763 73.582L148.225 73.3447C147.249 73.1953 146.66 72.9316 146.66 72.4131C146.66 71.9033 147.056 71.4727 147.996 71.4727C149.06 71.4727 149.543 72.1055 149.561 72.6064H152.901C152.901 70.7344 151.38 68.8096 147.988 68.8096C144.999 68.8096 143.004 70.2334 143.004 72.7119C143.004 74.9355 144.437 75.9287 146.414 76.2803L147.864 76.5352C148.946 76.7285 149.543 76.9395 149.543 77.5547C149.543 78.0469 149.156 78.4951 148.031 78.4951C146.88 78.4951 146.291 77.8887 146.274 77.3262H142.811ZM45.9078 102L48.4303 92.5869H48.483L51.0055 102H52.3678L55.6813 90.0029H53.9762L51.6559 99.3896H51.6031L49.2389 90.0029H47.6744L45.2926 99.3896H45.2486L42.9283 90.0029H41.232L44.5279 102H45.9078ZM68.16 102V90.0029H66.6219V95.1094H60.5838V90.0029H59.0457V102H60.5838V96.4717H66.6219V102H68.16ZM73.8975 95.1709C73.8975 92.4902 75.3213 91.1279 77.167 91.1279C79.0215 91.1279 80.4365 92.4902 80.4365 95.1709V96.9463C80.4365 99.6357 79.0215 100.875 77.167 100.875C75.3213 100.875 73.8975 99.6357 73.8975 96.9463V95.1709ZM72.3594 96.9463C72.3594 100.339 74.2402 102.255 77.1494 102.255C80.0674 102.255 81.9746 100.339 81.9746 96.9463V95.1797C81.9746 91.7695 80.0938 89.748 77.1846 89.748C74.2754 89.748 72.3594 91.7695 72.3594 95.1797V96.9463ZM91.5863 90.0029V102H95.4359C98.9164 102 100.709 99.9258 100.709 95.9971C100.709 92.0596 98.9252 90.0029 95.4359 90.0029H91.5863ZM93.1244 91.374H95.3481C97.8969 91.374 99.1186 92.9385 99.1186 95.9971C99.1186 99.1436 97.8354 100.629 95.3481 100.629H93.1244V91.374ZM111.94 100.629H106.271V96.542H111.624V95.2061H106.271V91.374H111.94V90.0029H104.742V102H111.94V100.629ZM115.287 98.7656C115.331 100.321 116.429 102.255 119.611 102.255C122.107 102.255 124.085 101.024 124.085 98.6602C124.085 96.7354 122.81 95.8828 120.965 95.3994L118.89 94.8457C117.739 94.5557 117.203 93.9229 117.203 93.0703C117.203 91.7871 118.284 91.0752 119.769 91.0752C121.448 91.0752 122.327 91.9805 122.432 93.1318H123.953C123.9 90.8027 121.844 89.7217 119.804 89.7217C117.651 89.7217 115.647 90.9258 115.647 93.1758C115.647 95.0479 117.027 95.9531 118.451 96.3223L120.56 96.876C121.896 97.2188 122.52 97.7812 122.52 98.7744C122.52 100.084 121.448 100.893 119.778 100.893C117.932 100.893 116.939 99.9258 116.825 98.7656H115.287ZM129.69 102V90.0029H128.152V102H129.69ZM143.118 93.6592C142.96 91.3301 141.211 89.748 138.654 89.748C135.674 89.748 133.89 91.752 133.89 95.0215V96.7969C133.89 100.277 135.569 102.255 138.689 102.255C141.29 102.255 143.145 100.515 143.145 98.2207V95.751H138.557V97.0869H141.651V98.2471C141.651 99.8027 140.455 100.875 138.697 100.875C136.562 100.875 135.419 99.3984 135.419 96.7969V95.0215C135.419 92.5693 136.614 91.1279 138.654 91.1279C140.315 91.1279 141.404 92.0771 141.598 93.6592H143.118ZM148.829 102V92.6221H148.865L154.964 102H156.441V90.0029H154.973V99.3721H154.938L148.838 90.0029H147.362V102H148.829Z" fill="white"/>
</svg>
