<svg width="200" height="200" viewBox="0 0 200 200" fill="none" xmlns="http://www.w3.org/2000/svg">
<rect width="200" height="200" rx="3" fill="#1E1E1E"/>
<path d="M53.9655 83C53.3895 83 52.8935 82.792 52.4775 82.376C52.0615 81.96 51.8535 81.464 51.8535 80.888V65.408H54.1335V80.24C54.1335 80.4 54.1815 80.536 54.2775 80.648C54.3895 80.744 54.5255 80.792 54.6855 80.792H55.5495C55.7095 80.792 55.8375 80.744 55.9335 80.648C56.0455 80.536 56.1015 80.4 56.1015 80.24V65.408H58.3815V80.888C58.3815 81.464 58.1735 81.96 57.7575 82.376C57.3415 82.792 56.8455 83 56.2695 83H53.9655ZM66.5889 65.408C67.1649 65.408 67.6609 65.616 68.0769 66.032C68.4929 66.448 68.7009 66.944 68.7009 67.52V73.112C68.7009 73.576 68.5569 73.992 68.2689 74.36C67.9969 74.728 67.6529 74.984 67.2369 75.128L70.1169 83H67.6689L64.9329 75.224H64.3569V83H62.0769V65.408H66.5889ZM64.3569 67.616V73.016H65.8689C66.0289 73.016 66.1569 72.968 66.2529 72.872C66.3649 72.76 66.4209 72.624 66.4209 72.464V68.168C66.4209 68.008 66.3649 67.88 66.2529 67.784C66.1569 67.672 66.0289 67.616 65.8689 67.616H64.3569ZM74.6702 83C74.0942 83 73.5982 82.792 73.1822 82.376C72.7662 81.96 72.5582 81.464 72.5582 80.888V65.408H74.8382V80.24C74.8382 80.4 74.8862 80.536 74.9822 80.648C75.0942 80.744 75.2302 80.792 75.3902 80.792H76.2542C76.4142 80.792 76.5422 80.744 76.6382 80.648C76.7502 80.536 76.8062 80.4 76.8062 80.24V65.408H79.0862V80.888C79.0862 81.464 78.8782 81.96 78.4622 82.376C78.0462 82.792 77.5502 83 76.9742 83H74.6702ZM86.0456 73.808H89.4056V80.888C89.4056 81.464 89.1976 81.96 88.7816 82.376C88.3656 82.792 87.8696 83 87.2936 83H84.8936C84.3176 83 83.8216 82.792 83.4056 82.376C82.9896 81.96 82.7816 81.464 82.7816 80.888V67.52C82.7816 66.944 82.9896 66.448 83.4056 66.032C83.8216 65.616 84.3176 65.408 84.8936 65.408H87.2456C87.8216 65.408 88.3176 65.616 88.7336 66.032C89.1496 66.448 89.3576 66.944 89.3576 67.52V71.888H87.1256V68.168C87.1256 68.008 87.0696 67.88 86.9576 67.784C86.8616 67.672 86.7336 67.616 86.5736 67.616H85.6136C85.4536 67.616 85.3176 67.672 85.2056 67.784C85.1096 67.88 85.0616 68.008 85.0616 68.168V80.24C85.0616 80.4 85.1096 80.536 85.2056 80.648C85.3176 80.744 85.4536 80.792 85.6136 80.792H86.5736C86.7336 80.792 86.8616 80.744 86.9576 80.648C87.0696 80.536 87.1256 80.4 87.1256 80.24V75.992H86.0456V73.808ZM95.2108 83C94.6348 83 94.1388 82.792 93.7228 82.376C93.3068 81.96 93.0988 81.464 93.0988 80.888V65.408H95.3788V80.24C95.3788 80.4 95.4268 80.536 95.5228 80.648C95.6348 80.744 95.7708 80.792 95.9308 80.792H96.7948C96.9548 80.792 97.0828 80.744 97.1788 80.648C97.2908 80.536 97.3468 80.4 97.3468 80.24V65.408H99.6268V80.888C99.6268 81.464 99.4188 81.96 99.0028 82.376C98.5868 82.792 98.0908 83 97.5148 83H95.2108ZM106.929 78.44H105.105L104.577 83H102.393L104.673 65.408H107.433L109.737 83H107.505L106.929 78.44ZM105.369 76.256H106.665L106.017 70.832L105.369 76.256ZM114.766 72.128L116.662 65.408H118.918L115.87 75.416V83H113.59V75.416L110.566 65.408H112.798L114.766 72.128ZM124.259 78.44H122.435L121.907 83H119.723L122.003 65.408H124.763L127.067 83H124.835L124.259 78.44ZM122.699 76.256H123.995L123.347 70.832L122.699 76.256ZM134.541 75.296H134.565L134.469 71.672V65.408H136.629V83H134.589L132.213 73.112H132.189L132.285 76.736V83H130.125V65.408H132.165L134.541 75.296ZM142.437 75.296C141.861 75.296 141.365 75.088 140.949 74.672C140.533 74.256 140.325 73.76 140.325 73.184V67.52C140.325 66.944 140.533 66.448 140.949 66.032C141.365 65.616 141.861 65.408 142.437 65.408H144.837C145.413 65.408 145.909 65.616 146.325 66.032C146.741 66.448 146.949 66.944 146.949 67.52V71.624H144.669V68.168C144.669 68.008 144.613 67.88 144.501 67.784C144.405 67.672 144.277 67.616 144.117 67.616H143.157C142.997 67.616 142.861 67.672 142.749 67.784C142.653 67.88 142.605 68.008 142.605 68.168V72.584C142.605 72.744 142.653 72.88 142.749 72.992C142.861 73.088 142.997 73.136 143.157 73.136H144.837C145.413 73.136 145.909 73.344 146.325 73.76C146.741 74.176 146.949 74.672 146.949 75.248V80.888C146.949 81.464 146.741 81.96 146.325 82.376C145.909 82.792 145.413 83 144.837 83H142.437C141.861 83 141.365 82.792 140.949 82.376C140.533 81.96 140.325 81.464 140.325 80.888V76.736H142.605V80.24C142.605 80.4 142.653 80.536 142.749 80.648C142.861 80.744 142.997 80.792 143.157 80.792H144.117C144.277 80.792 144.405 80.744 144.501 80.648C144.613 80.536 144.669 80.4 144.669 80.24V75.848C144.669 75.688 144.613 75.56 144.501 75.464C144.405 75.352 144.277 75.296 144.117 75.296H142.437ZM62.5143 89.408H64.7703L62.0103 107H60.3303L58.6503 98.384L56.8743 107H55.2663L52.5063 89.408H54.8103L56.4183 100.136L58.0983 91.712H59.1543L60.9063 100.136L62.5143 89.408ZM71.9594 99.296H70.0874V107H67.8074V89.408H70.0874V97.112H71.9594V89.408H74.2394V107H71.9594V99.296ZM80.0491 107C79.4731 107 78.9771 106.792 78.5611 106.376C78.1451 105.96 77.9371 105.464 77.9371 104.888V91.52C77.9371 90.944 78.1451 90.448 78.5611 90.032C78.9771 89.616 79.4731 89.408 80.0491 89.408H82.4491C83.0251 89.408 83.5211 89.616 83.9371 90.032C84.3531 90.448 84.5611 90.944 84.5611 91.52V104.888C84.5611 105.464 84.3531 105.96 83.9371 106.376C83.5211 106.792 83.0251 107 82.4491 107H80.0491ZM80.2171 104.24C80.2171 104.4 80.2651 104.536 80.3611 104.648C80.4731 104.744 80.6091 104.792 80.7691 104.792H81.7291C81.8891 104.792 82.0171 104.744 82.1131 104.648C82.2251 104.536 82.2811 104.4 82.2811 104.24V92.168C82.2811 92.008 82.2251 91.88 82.1131 91.784C82.0171 91.672 81.8891 91.616 81.7291 91.616H80.7691C80.6091 91.616 80.4731 91.672 80.3611 91.784C80.2651 91.88 80.2171 92.008 80.2171 92.168V104.24ZM93.7667 107V89.408H98.2787C98.8547 89.408 99.3507 89.616 99.7667 90.032C100.183 90.448 100.391 90.944 100.391 91.52V104.888C100.391 105.464 100.183 105.96 99.7667 106.376C99.3507 106.792 98.8547 107 98.2787 107H93.7667ZM96.0467 91.616V104.792H97.5587C97.7187 104.792 97.8467 104.744 97.9427 104.648C98.0547 104.536 98.1107 104.4 98.1107 104.24V92.168C98.1107 92.008 98.0547 91.88 97.9427 91.784C97.8467 91.672 97.7187 91.616 97.5587 91.616H96.0467ZM104.084 89.408H109.364V91.688H106.364V97.112H109.364V99.296H106.364V104.72H109.364V107H104.084V89.408ZM114.638 99.296C114.062 99.296 113.566 99.088 113.15 98.672C112.734 98.256 112.526 97.76 112.526 97.184V91.52C112.526 90.944 112.734 90.448 113.15 90.032C113.566 89.616 114.062 89.408 114.638 89.408H117.038C117.614 89.408 118.11 89.616 118.526 90.032C118.942 90.448 119.15 90.944 119.15 91.52V95.624H116.87V92.168C116.87 92.008 116.814 91.88 116.702 91.784C116.606 91.672 116.478 91.616 116.318 91.616H115.358C115.198 91.616 115.062 91.672 114.95 91.784C114.854 91.88 114.806 92.008 114.806 92.168V96.584C114.806 96.744 114.854 96.88 114.95 96.992C115.062 97.088 115.198 97.136 115.358 97.136H117.038C117.614 97.136 118.11 97.344 118.526 97.76C118.942 98.176 119.15 98.672 119.15 99.248V104.888C119.15 105.464 118.942 105.96 118.526 106.376C118.11 106.792 117.614 107 117.038 107H114.638C114.062 107 113.566 106.792 113.15 106.376C112.734 105.96 112.526 105.464 112.526 104.888V100.736H114.806V104.24C114.806 104.4 114.854 104.536 114.95 104.648C115.062 104.744 115.198 104.792 115.358 104.792H116.318C116.478 104.792 116.606 104.744 116.702 104.648C116.814 104.536 116.87 104.4 116.87 104.24V99.848C116.87 99.688 116.814 99.56 116.702 99.464C116.606 99.352 116.478 99.296 116.318 99.296H114.638ZM125.123 107H122.843V89.408H125.123V107ZM132.089 97.808H135.449V104.888C135.449 105.464 135.241 105.96 134.825 106.376C134.409 106.792 133.913 107 133.337 107H130.937C130.361 107 129.865 106.792 129.449 106.376C129.033 105.96 128.825 105.464 128.825 104.888V91.52C128.825 90.944 129.033 90.448 129.449 90.032C129.865 89.616 130.361 89.408 130.937 89.408H133.289C133.865 89.408 134.361 89.616 134.777 90.032C135.193 90.448 135.401 90.944 135.401 91.52V95.888H133.169V92.168C133.169 92.008 133.113 91.88 133.001 91.784C132.905 91.672 132.777 91.616 132.617 91.616H131.657C131.497 91.616 131.361 91.672 131.249 91.784C131.153 91.88 131.105 92.008 131.105 92.168V104.24C131.105 104.4 131.153 104.536 131.249 104.648C131.361 104.744 131.497 104.792 131.657 104.792H132.617C132.777 104.792 132.905 104.744 133.001 104.648C133.113 104.536 133.169 104.4 133.169 104.24V99.992H132.089V97.808ZM143.558 99.296H143.582L143.486 95.672V89.408H145.646V107H143.606L141.23 97.112H141.206L141.302 100.736V107H139.142V89.408H141.182L143.558 99.296Z" fill="white"/>
</svg>
