<svg width="96" height="42" viewBox="0 0 96 42" fill="none" xmlns="http://www.w3.org/2000/svg">
<path d="M2.96547 18C2.38947 18 1.89347 17.792 1.47747 17.376C1.06147 16.96 0.853469 16.464 0.853469 15.888V0.407999H3.13347V15.24C3.13347 15.4 3.18147 15.536 3.27747 15.648C3.38947 15.744 3.52547 15.792 3.68547 15.792H4.54947C4.70947 15.792 4.83747 15.744 4.93347 15.648C5.04547 15.536 5.10147 15.4 5.10147 15.24V0.407999H7.38147V15.888C7.38147 16.464 7.17347 16.96 6.75747 17.376C6.34147 17.792 5.84547 18 5.26947 18H2.96547ZM15.5889 0.407999C16.1649 0.407999 16.6609 0.615999 17.0769 1.032C17.4929 1.448 17.7009 1.944 17.7009 2.52V8.112C17.7009 8.576 17.5569 8.992 17.2689 9.36C16.9969 9.728 16.6529 9.984 16.2369 10.128L19.1169 18H16.6689L13.9329 10.224H13.3569V18H11.0769V0.407999H15.5889ZM13.3569 2.616V8.016H14.8689C15.0289 8.016 15.1569 7.968 15.2529 7.872C15.3649 7.76 15.4209 7.624 15.4209 7.464V3.168C15.4209 3.008 15.3649 2.88 15.2529 2.784C15.1569 2.672 15.0289 2.616 14.8689 2.616H13.3569ZM23.6702 18C23.0942 18 22.5982 17.792 22.1822 17.376C21.7662 16.96 21.5582 16.464 21.5582 15.888V0.407999H23.8382V15.24C23.8382 15.4 23.8862 15.536 23.9822 15.648C24.0942 15.744 24.2302 15.792 24.3902 15.792H25.2542C25.4142 15.792 25.5422 15.744 25.6382 15.648C25.7502 15.536 25.8062 15.4 25.8062 15.24V0.407999H28.0862V15.888C28.0862 16.464 27.8782 16.96 27.4622 17.376C27.0462 17.792 26.5502 18 25.9742 18H23.6702ZM35.0456 8.808H38.4056V15.888C38.4056 16.464 38.1976 16.96 37.7816 17.376C37.3656 17.792 36.8696 18 36.2936 18H33.8936C33.3176 18 32.8216 17.792 32.4056 17.376C31.9896 16.96 31.7816 16.464 31.7816 15.888V2.52C31.7816 1.944 31.9896 1.448 32.4056 1.032C32.8216 0.615999 33.3176 0.407999 33.8936 0.407999H36.2456C36.8216 0.407999 37.3176 0.615999 37.7336 1.032C38.1496 1.448 38.3576 1.944 38.3576 2.52V6.888H36.1256V3.168C36.1256 3.008 36.0696 2.88 35.9576 2.784C35.8616 2.672 35.7336 2.616 35.5736 2.616H34.6136C34.4536 2.616 34.3176 2.672 34.2056 2.784C34.1096 2.88 34.0616 3.008 34.0616 3.168V15.24C34.0616 15.4 34.1096 15.536 34.2056 15.648C34.3176 15.744 34.4536 15.792 34.6136 15.792H35.5736C35.7336 15.792 35.8616 15.744 35.9576 15.648C36.0696 15.536 36.1256 15.4 36.1256 15.24V10.992H35.0456V8.808ZM44.2108 18C43.6348 18 43.1388 17.792 42.7228 17.376C42.3068 16.96 42.0988 16.464 42.0988 15.888V0.407999H44.3788V15.24C44.3788 15.4 44.4268 15.536 44.5228 15.648C44.6348 15.744 44.7708 15.792 44.9308 15.792H45.7948C45.9548 15.792 46.0828 15.744 46.1788 15.648C46.2908 15.536 46.3468 15.4 46.3468 15.24V0.407999H48.6268V15.888C48.6268 16.464 48.4188 16.96 48.0028 17.376C47.5868 17.792 47.0908 18 46.5148 18H44.2108ZM55.929 13.44H54.105L53.577 18H51.393L53.673 0.407999H56.433L58.737 18H56.505L55.929 13.44ZM54.369 11.256H55.665L55.017 5.832L54.369 11.256ZM63.7655 7.128L65.6615 0.407999H67.9175L64.8695 10.416V18H62.5895V10.416L59.5655 0.407999H61.7975L63.7655 7.128ZM73.2587 13.44H71.4347L70.9067 18H68.7227L71.0027 0.407999H73.7627L76.0667 18H73.8347L73.2587 13.44ZM71.6987 11.256H72.9947L72.3467 5.832L71.6987 11.256ZM83.5413 10.296H83.5653L83.4693 6.672V0.407999H85.6293V18H83.5893L81.2133 8.112H81.1893L81.2853 11.736V18H79.1253V0.407999H81.1653L83.5413 10.296ZM91.4373 10.296C90.8613 10.296 90.3653 10.088 89.9493 9.672C89.5333 9.256 89.3253 8.76 89.3253 8.184V2.52C89.3253 1.944 89.5333 1.448 89.9493 1.032C90.3653 0.615999 90.8613 0.407999 91.4373 0.407999H93.8373C94.4133 0.407999 94.9093 0.615999 95.3253 1.032C95.7413 1.448 95.9493 1.944 95.9493 2.52V6.624H93.6693V3.168C93.6693 3.008 93.6133 2.88 93.5013 2.784C93.4053 2.672 93.2773 2.616 93.1173 2.616H92.1573C91.9973 2.616 91.8613 2.672 91.7493 2.784C91.6533 2.88 91.6053 3.008 91.6053 3.168V7.584C91.6053 7.744 91.6533 7.88 91.7493 7.992C91.8613 8.088 91.9973 8.136 92.1573 8.136H93.8373C94.4133 8.136 94.9093 8.344 95.3253 8.76C95.7413 9.176 95.9493 9.672 95.9493 10.248V15.888C95.9493 16.464 95.7413 16.96 95.3253 17.376C94.9093 17.792 94.4133 18 93.8373 18H91.4373C90.8613 18 90.3653 17.792 89.9493 17.376C89.5333 16.96 89.3253 16.464 89.3253 15.888V11.736H91.6053V15.24C91.6053 15.4 91.6533 15.536 91.7493 15.648C91.8613 15.744 91.9973 15.792 92.1573 15.792H93.1173C93.2773 15.792 93.4053 15.744 93.5013 15.648C93.6133 15.536 93.6693 15.4 93.6693 15.24V10.848C93.6693 10.688 93.6133 10.56 93.5013 10.464C93.4053 10.352 93.2773 10.296 93.1173 10.296H91.4373ZM11.5143 24.408H13.7703L11.0103 42H9.33025L7.65025 33.384L5.87425 42H4.26625L1.50625 24.408H3.81025L5.41825 35.136L7.09825 26.712H8.15425L9.90625 35.136L11.5143 24.408ZM20.9594 34.296H19.0874V42H16.8074V24.408H19.0874V32.112H20.9594V24.408H23.2394V42H20.9594V34.296ZM29.0491 42C28.4731 42 27.9771 41.792 27.5611 41.376C27.1451 40.96 26.9371 40.464 26.9371 39.888V26.52C26.9371 25.944 27.1451 25.448 27.5611 25.032C27.9771 24.616 28.4731 24.408 29.0491 24.408H31.4491C32.0251 24.408 32.5211 24.616 32.9371 25.032C33.3531 25.448 33.5611 25.944 33.5611 26.52V39.888C33.5611 40.464 33.3531 40.96 32.9371 41.376C32.5211 41.792 32.0251 42 31.4491 42H29.0491ZM29.2171 39.24C29.2171 39.4 29.2651 39.536 29.3611 39.648C29.4731 39.744 29.6091 39.792 29.7691 39.792H30.7291C30.8891 39.792 31.0171 39.744 31.1131 39.648C31.2251 39.536 31.2811 39.4 31.2811 39.24V27.168C31.2811 27.008 31.2251 26.88 31.1131 26.784C31.0171 26.672 30.8891 26.616 30.7291 26.616H29.7691C29.6091 26.616 29.4731 26.672 29.3611 26.784C29.2651 26.88 29.2171 27.008 29.2171 27.168V39.24ZM42.7667 42V24.408H47.2787C47.8547 24.408 48.3507 24.616 48.7667 25.032C49.1827 25.448 49.3907 25.944 49.3907 26.52V39.888C49.3907 40.464 49.1827 40.96 48.7667 41.376C48.3507 41.792 47.8547 42 47.2787 42H42.7667ZM45.0467 26.616V39.792H46.5587C46.7187 39.792 46.8467 39.744 46.9427 39.648C47.0547 39.536 47.1107 39.4 47.1107 39.24V27.168C47.1107 27.008 47.0547 26.88 46.9427 26.784C46.8467 26.672 46.7187 26.616 46.5587 26.616H45.0467ZM53.0839 24.408H58.3639V26.688H55.3639V32.112H58.3639V34.296H55.3639V39.72H58.3639V42H53.0839V24.408ZM63.6381 34.296C63.0621 34.296 62.5661 34.088 62.1501 33.672C61.7341 33.256 61.5261 32.76 61.5261 32.184V26.52C61.5261 25.944 61.7341 25.448 62.1501 25.032C62.5661 24.616 63.0621 24.408 63.6381 24.408H66.0381C66.6141 24.408 67.1101 24.616 67.5261 25.032C67.9421 25.448 68.1501 25.944 68.1501 26.52V30.624H65.8701V27.168C65.8701 27.008 65.8141 26.88 65.7021 26.784C65.6061 26.672 65.4781 26.616 65.3181 26.616H64.3581C64.1981 26.616 64.0621 26.672 63.9501 26.784C63.8541 26.88 63.8061 27.008 63.8061 27.168V31.584C63.8061 31.744 63.8541 31.88 63.9501 31.992C64.0621 32.088 64.1981 32.136 64.3581 32.136H66.0381C66.6141 32.136 67.1101 32.344 67.5261 32.76C67.9421 33.176 68.1501 33.672 68.1501 34.248V39.888C68.1501 40.464 67.9421 40.96 67.5261 41.376C67.1101 41.792 66.6141 42 66.0381 42H63.6381C63.0621 42 62.5661 41.792 62.1501 41.376C61.7341 40.96 61.5261 40.464 61.5261 39.888V35.736H63.8061V39.24C63.8061 39.4 63.8541 39.536 63.9501 39.648C64.0621 39.744 64.1981 39.792 64.3581 39.792H65.3181C65.4781 39.792 65.6061 39.744 65.7021 39.648C65.8141 39.536 65.8701 39.4 65.8701 39.24V34.848C65.8701 34.688 65.8141 34.56 65.7021 34.464C65.6061 34.352 65.4781 34.296 65.3181 34.296H63.6381ZM74.1233 42H71.8433V24.408H74.1233V42ZM81.0886 32.808H84.4486V39.888C84.4486 40.464 84.2406 40.96 83.8246 41.376C83.4086 41.792 82.9126 42 82.3366 42H79.9366C79.3606 42 78.8646 41.792 78.4486 41.376C78.0326 40.96 77.8246 40.464 77.8246 39.888V26.52C77.8246 25.944 78.0326 25.448 78.4486 25.032C78.8646 24.616 79.3606 24.408 79.9366 24.408H82.2886C82.8646 24.408 83.3606 24.616 83.7766 25.032C84.1926 25.448 84.4006 25.944 84.4006 26.52V30.888H82.1686V27.168C82.1686 27.008 82.1126 26.88 82.0006 26.784C81.9046 26.672 81.7766 26.616 81.6166 26.616H80.6566C80.4966 26.616 80.3606 26.672 80.2486 26.784C80.1526 26.88 80.1046 27.008 80.1046 27.168V39.24C80.1046 39.4 80.1526 39.536 80.2486 39.648C80.3606 39.744 80.4966 39.792 80.6566 39.792H81.6166C81.7766 39.792 81.9046 39.744 82.0006 39.648C82.1126 39.536 82.1686 39.4 82.1686 39.24V34.992H81.0886V32.808ZM92.5578 34.296H92.5818L92.4858 30.672V24.408H94.6458V42H92.6058L90.2298 32.112H90.2058L90.3018 35.736V42H88.1418V24.408H90.1818L92.5578 34.296Z" fill="white"/>
</svg>
