<svg width="400" height="400" viewBox="0 0 400 400" fill="none" xmlns="http://www.w3.org/2000/svg">
<rect width="400" height="400" fill="black"/>
<g clip-path="url(#clip0)">
<path d="M87 164.5H99.5V239.5H174.5V164.5H187V252H87V164.5ZM214.5 202H302V252H202V239.5H289.5V214.5H202V164.5H277H302V177H214.5V202Z" fill="white"/>
<path d="M87.68 145V79.03H104.6C106.76 79.03 108.62 79.81 110.18 81.37C111.74 82.93 112.52 84.79 112.52 86.95V137.08C112.52 139.24 111.74 141.1 110.18 142.66C108.62 144.22 106.76 145 104.6 145H87.68ZM96.23 87.31V136.72H101.9C102.5 136.72 102.98 136.54 103.34 136.18C103.76 135.76 103.97 135.25 103.97 134.65V89.38C103.97 88.78 103.76 88.3 103.34 87.94C102.98 87.52 102.5 87.31 101.9 87.31H96.23ZM118.869 79.03H138.669V87.58H127.419V107.92H138.669V116.11H127.419V136.45H138.669V145H118.869V79.03ZM150.948 116.11C148.788 116.11 146.928 115.33 145.368 113.77C143.808 112.21 143.028 110.35 143.028 108.19V86.95C143.028 84.79 143.808 82.93 145.368 81.37C146.928 79.81 148.788 79.03 150.948 79.03H159.948C162.108 79.03 163.968 79.81 165.528 81.37C167.088 82.93 167.868 84.79 167.868 86.95V102.34H159.318V89.38C159.318 88.78 159.108 88.3 158.688 87.94C158.328 87.52 157.848 87.31 157.248 87.31H153.648C153.048 87.31 152.538 87.52 152.118 87.94C151.758 88.3 151.578 88.78 151.578 89.38V105.94C151.578 106.54 151.758 107.05 152.118 107.47C152.538 107.83 153.048 108.01 153.648 108.01H159.948C162.108 108.01 163.968 108.79 165.528 110.35C167.088 111.91 167.868 113.77 167.868 115.93V137.08C167.868 139.24 167.088 141.1 165.528 142.66C163.968 144.22 162.108 145 159.948 145H150.948C148.788 145 146.928 144.22 145.368 142.66C143.808 141.1 143.028 139.24 143.028 137.08V121.51H151.578V134.65C151.578 135.25 151.758 135.76 152.118 136.18C152.538 136.54 153.048 136.72 153.648 136.72H157.248C157.848 136.72 158.328 136.54 158.688 136.18C159.108 135.76 159.318 135.25 159.318 134.65V118.18C159.318 117.58 159.108 117.1 158.688 116.74C158.328 116.32 157.848 116.11 157.248 116.11H150.948ZM182.767 145H174.217V79.03H182.767V145ZM201.387 110.53H213.987V137.08C213.987 139.24 213.207 141.1 211.647 142.66C210.087 144.22 208.227 145 206.067 145H197.067C194.907 145 193.047 144.22 191.487 142.66C189.927 141.1 189.147 139.24 189.147 137.08V86.95C189.147 84.79 189.927 82.93 191.487 81.37C193.047 79.81 194.907 79.03 197.067 79.03H205.887C208.047 79.03 209.907 79.81 211.467 81.37C213.027 82.93 213.807 84.79 213.807 86.95V103.33H205.437V89.38C205.437 88.78 205.227 88.3 204.807 87.94C204.447 87.52 203.967 87.31 203.367 87.31H199.767C199.167 87.31 198.657 87.52 198.237 87.94C197.877 88.3 197.697 88.78 197.697 89.38V134.65C197.697 135.25 197.877 135.76 198.237 136.18C198.657 136.54 199.167 136.72 199.767 136.72H203.367C203.967 136.72 204.447 136.54 204.807 136.18C205.227 135.76 205.437 135.25 205.437 134.65V118.72H201.387V110.53ZM236.896 116.11H236.986L236.626 102.52V79.03H244.726V145H237.076L228.166 107.92H228.076L228.436 121.51V145H220.336V79.03H227.986L236.896 116.11ZM251.086 79.03H270.886V87.58H259.636V107.92H270.886V116.11H259.636V136.45H270.886V145H251.086V79.03ZM275.244 145V79.03H292.164C294.324 79.03 296.184 79.81 297.744 81.37C299.304 82.93 300.084 84.79 300.084 86.95V137.08C300.084 139.24 299.304 141.1 297.744 142.66C296.184 144.22 294.324 145 292.164 145H275.244ZM283.794 87.31V136.72H289.464C290.064 136.72 290.544 136.54 290.904 136.18C291.324 135.76 291.534 135.25 291.534 134.65V89.38C291.534 88.78 291.324 88.3 290.904 87.94C290.544 87.52 290.064 87.31 289.464 87.31H283.794Z" fill="white"/>
<path d="M134.7 218.312C134.7 220.136 134.041 221.707 132.724 223.024C131.407 224.341 129.836 225 128.012 225H113.952V169.292H128.012C129.836 169.292 131.407 169.951 132.724 171.268C134.041 172.585 134.7 174.156 134.7 175.98V192.092C134.7 193.105 134.573 193.941 134.32 194.6C134.117 195.259 133.839 195.791 133.484 196.196C133.18 196.551 132.851 196.804 132.496 196.956C132.141 197.108 131.812 197.184 131.508 197.184C131.812 197.235 132.141 197.336 132.496 197.488C132.851 197.64 133.18 197.919 133.484 198.324C133.839 198.679 134.117 199.185 134.32 199.844C134.573 200.452 134.7 201.263 134.7 202.276V218.312ZM121.172 176.284V193.688H125.732C126.239 193.688 126.644 193.536 126.948 193.232C127.303 192.877 127.48 192.447 127.48 191.94V178.032C127.48 177.525 127.303 177.12 126.948 176.816C126.644 176.461 126.239 176.284 125.732 176.284H121.172ZM121.172 200.604V218.008H125.732C126.239 218.008 126.644 217.856 126.948 217.552C127.303 217.197 127.48 216.767 127.48 216.26V202.352C127.48 201.845 127.303 201.44 126.948 201.136C126.644 200.781 126.239 200.604 125.732 200.604H121.172ZM149.391 190.572L155.395 169.292H162.539L152.887 200.984V225H145.667V200.984L136.091 169.292H143.159L149.391 190.572Z" fill="#0A84FF"/>
</g>
<path d="M85.08 313V283.68H92.6C93.56 283.68 94.3867 284.027 95.08 284.72C95.7733 285.413 96.12 286.24 96.12 287.2V309.48C96.12 310.44 95.7733 311.267 95.08 311.96C94.3867 312.653 93.56 313 92.6 313H85.08ZM88.88 287.36V309.32H91.4C91.6667 309.32 91.88 309.24 92.04 309.08C92.2267 308.893 92.32 308.667 92.32 308.4V288.28C92.32 288.013 92.2267 287.8 92.04 287.64C91.88 287.453 91.6667 287.36 91.4 287.36H88.88ZM100.542 283.68H109.342V287.48H104.342V296.52H109.342V300.16H104.342V309.2H109.342V313H100.542V283.68ZM116.399 300.16C115.439 300.16 114.612 299.813 113.919 299.12C113.226 298.427 112.879 297.6 112.879 296.64V287.2C112.879 286.24 113.226 285.413 113.919 284.72C114.612 284.027 115.439 283.68 116.399 283.68H120.399C121.359 283.68 122.186 284.027 122.879 284.72C123.572 285.413 123.919 286.24 123.919 287.2V294.04H120.119V288.28C120.119 288.013 120.026 287.8 119.839 287.64C119.679 287.453 119.466 287.36 119.199 287.36H117.599C117.332 287.36 117.106 287.453 116.919 287.64C116.759 287.8 116.679 288.013 116.679 288.28V295.64C116.679 295.907 116.759 296.133 116.919 296.32C117.106 296.48 117.332 296.56 117.599 296.56H120.399C121.359 296.56 122.186 296.907 122.879 297.6C123.572 298.293 123.919 299.12 123.919 300.08V309.48C123.919 310.44 123.572 311.267 122.879 311.96C122.186 312.653 121.359 313 120.399 313H116.399C115.439 313 114.612 312.653 113.919 311.96C113.226 311.267 112.879 310.44 112.879 309.48V302.56H116.679V308.4C116.679 308.667 116.759 308.893 116.919 309.08C117.106 309.24 117.332 309.32 117.599 309.32H119.199C119.466 309.32 119.679 309.24 119.839 309.08C120.026 308.893 120.119 308.667 120.119 308.4V301.08C120.119 300.813 120.026 300.6 119.839 300.44C119.679 300.253 119.466 300.16 119.199 300.16H116.399ZM132.141 313H128.341V283.68H132.141V313ZM142.016 297.68H147.616V309.48C147.616 310.44 147.27 311.267 146.576 311.96C145.883 312.653 145.056 313 144.096 313H140.096C139.136 313 138.31 312.653 137.616 311.96C136.923 311.267 136.576 310.44 136.576 309.48V287.2C136.576 286.24 136.923 285.413 137.616 284.72C138.31 284.027 139.136 283.68 140.096 283.68H144.016C144.976 283.68 145.803 284.027 146.496 284.72C147.19 285.413 147.536 286.24 147.536 287.2V294.48H143.816V288.28C143.816 288.013 143.723 287.8 143.536 287.64C143.376 287.453 143.163 287.36 142.896 287.36H141.296C141.03 287.36 140.803 287.453 140.616 287.64C140.456 287.8 140.376 288.013 140.376 288.28V308.4C140.376 308.667 140.456 308.893 140.616 309.08C140.803 309.24 141.03 309.32 141.296 309.32H142.896C143.163 309.32 143.376 309.24 143.536 309.08C143.723 308.893 143.816 308.667 143.816 308.4V301.32H142.016V297.68ZM159.398 300.16H159.438L159.278 294.12V283.68H162.878V313H159.478L155.518 296.52H155.478L155.638 302.56V313H152.038V283.68H155.438L159.398 300.16ZM167.305 283.68H176.105V287.48H171.105V296.52H176.105V300.16H171.105V309.2H176.105V313H167.305V283.68ZM179.642 313V283.68H187.162C188.122 283.68 188.949 284.027 189.642 284.72C190.335 285.413 190.682 286.24 190.682 287.2V309.48C190.682 310.44 190.335 311.267 189.642 311.96C188.949 312.653 188.122 313 187.162 313H179.642ZM183.442 287.36V309.32H185.962C186.229 309.32 186.442 309.24 186.602 309.08C186.789 308.893 186.882 308.667 186.882 308.4V288.28C186.882 288.013 186.789 287.8 186.602 287.64C186.442 287.453 186.229 287.36 185.962 287.36H183.442ZM206.024 309.48C206.024 310.44 205.677 311.267 204.984 311.96C204.291 312.653 203.464 313 202.504 313H195.104V283.68H202.504C203.464 283.68 204.291 284.027 204.984 284.72C205.677 285.413 206.024 286.24 206.024 287.2V295.68C206.024 296.213 205.957 296.653 205.824 297C205.717 297.347 205.571 297.627 205.384 297.84C205.224 298.027 205.051 298.16 204.864 298.24C204.677 298.32 204.504 298.36 204.344 298.36C204.504 298.387 204.677 298.44 204.864 298.52C205.051 298.6 205.224 298.747 205.384 298.96C205.571 299.147 205.717 299.413 205.824 299.76C205.957 300.08 206.024 300.507 206.024 301.04V309.48ZM198.904 287.36V296.52H201.304C201.571 296.52 201.784 296.44 201.944 296.28C202.131 296.093 202.224 295.867 202.224 295.6V288.28C202.224 288.013 202.131 287.8 201.944 287.64C201.784 287.453 201.571 287.36 201.304 287.36H198.904ZM198.904 300.16V309.32H201.304C201.571 309.32 201.784 309.24 201.944 309.08C202.131 308.893 202.224 308.667 202.224 308.4V301.08C202.224 300.813 202.131 300.6 201.944 300.44C201.784 300.253 201.571 300.16 201.304 300.16H198.904ZM214.865 294.88L218.025 283.68H221.785L216.705 300.36V313H212.905V300.36L207.865 283.68H211.585L214.865 294.88ZM227.399 313C226.439 313 225.613 312.653 224.919 311.96C224.226 311.267 223.879 310.44 223.879 309.48V283.68H227.679V308.4C227.679 308.667 227.759 308.893 227.919 309.08C228.106 309.24 228.333 309.32 228.599 309.32H230.039C230.306 309.32 230.519 309.24 230.679 309.08C230.866 308.893 230.959 308.667 230.959 308.4V283.68H234.759V309.48C234.759 310.44 234.413 311.267 233.719 311.96C233.026 312.653 232.199 313 231.239 313H227.399ZM242.705 300.16C241.745 300.16 240.919 299.813 240.225 299.12C239.532 298.427 239.185 297.6 239.185 296.64V287.2C239.185 286.24 239.532 285.413 240.225 284.72C240.919 284.027 241.745 283.68 242.705 283.68H246.705C247.665 283.68 248.492 284.027 249.185 284.72C249.879 285.413 250.225 286.24 250.225 287.2V294.04H246.425V288.28C246.425 288.013 246.332 287.8 246.145 287.64C245.985 287.453 245.772 287.36 245.505 287.36H243.905C243.639 287.36 243.412 287.453 243.225 287.64C243.065 287.8 242.985 288.013 242.985 288.28V295.64C242.985 295.907 243.065 296.133 243.225 296.32C243.412 296.48 243.639 296.56 243.905 296.56H246.705C247.665 296.56 248.492 296.907 249.185 297.6C249.879 298.293 250.225 299.12 250.225 300.08V309.48C250.225 310.44 249.879 311.267 249.185 311.96C248.492 312.653 247.665 313 246.705 313H242.705C241.745 313 240.919 312.653 240.225 311.96C239.532 311.267 239.185 310.44 239.185 309.48V302.56H242.985V308.4C242.985 308.667 243.065 308.893 243.225 309.08C243.412 309.24 243.639 309.32 243.905 309.32H245.505C245.772 309.32 245.985 309.24 246.145 309.08C246.332 308.893 246.425 308.667 246.425 308.4V301.08C246.425 300.813 246.332 300.6 246.145 300.44C245.985 300.253 245.772 300.16 245.505 300.16H242.705ZM264.645 313C263.685 313 262.858 312.653 262.165 311.96C261.471 311.267 261.125 310.44 261.125 309.48V287.2C261.125 286.24 261.471 285.413 262.165 284.72C262.858 284.027 263.685 283.68 264.645 283.68H268.645C269.605 283.68 270.431 284.027 271.125 284.72C271.818 285.413 272.165 286.24 272.165 287.2V309.48C272.165 310.44 271.818 311.267 271.125 311.96C270.431 312.653 269.605 313 268.645 313H264.645ZM264.925 308.4C264.925 308.667 265.005 308.893 265.165 309.08C265.351 309.24 265.578 309.32 265.845 309.32H267.445C267.711 309.32 267.925 309.24 268.085 309.08C268.271 308.893 268.365 308.667 268.365 308.4V288.28C268.365 288.013 268.271 287.8 268.085 287.64C267.925 287.453 267.711 287.36 267.445 287.36H265.845C265.578 287.36 265.351 287.453 265.165 287.64C265.005 287.8 264.925 288.013 264.925 288.28V308.4ZM284.107 283.68C285.067 283.68 285.893 284.027 286.587 284.72C287.28 285.413 287.627 286.24 287.627 287.2V296.52C287.627 297.293 287.387 297.987 286.907 298.6C286.453 299.213 285.88 299.64 285.187 299.88L289.987 313H285.907L281.347 300.04H280.387V313H276.587V283.68H284.107ZM280.387 287.36V296.36H282.907C283.173 296.36 283.387 296.28 283.547 296.12C283.733 295.933 283.827 295.707 283.827 295.44V288.28C283.827 288.013 283.733 287.8 283.547 287.64C283.387 287.453 283.173 287.36 282.907 287.36H280.387ZM297.762 297.68H303.362V309.48C303.362 310.44 303.016 311.267 302.322 311.96C301.629 312.653 300.802 313 299.842 313H295.842C294.882 313 294.056 312.653 293.362 311.96C292.669 311.267 292.322 310.44 292.322 309.48V287.2C292.322 286.24 292.669 285.413 293.362 284.72C294.056 284.027 294.882 283.68 295.842 283.68H299.762C300.722 283.68 301.549 284.027 302.242 284.72C302.936 285.413 303.282 286.24 303.282 287.2V294.48H299.562V288.28C299.562 288.013 299.469 287.8 299.282 287.64C299.122 287.453 298.909 287.36 298.642 287.36H297.042C296.776 287.36 296.549 287.453 296.362 287.64C296.202 287.8 296.122 288.013 296.122 288.28V308.4C296.122 308.667 296.202 308.893 296.362 309.08C296.549 309.24 296.776 309.32 297.042 309.32H298.642C298.909 309.32 299.122 309.24 299.282 309.08C299.469 308.893 299.562 308.667 299.562 308.4V301.32H297.762V297.68Z" fill="white"/>
<path d="M257.567 313H253.767V308.8H257.567V313Z" fill="#0A84FF"/>
<defs>
<clipPath id="clip0">
<rect width="234" height="181" fill="white" transform="translate(83 77)"/>
</clipPath>
</defs>
</svg>
