<svg width="200" height="343" viewBox="0 0 200 343" fill="none" xmlns="http://www.w3.org/2000/svg">
<path d="M0 0H200V264L103.099 340.551C101.282 341.987 98.7175 341.987 96.9005 340.551L0 264V113.5V0Z" fill="#363636"/>
<path d="M31.12 89V45.02H42.4C43.84 45.02 45.08 45.54 46.12 46.58C47.16 47.62 47.68 48.86 47.68 50.3V83.72C47.68 85.16 47.16 86.4 46.12 87.44C45.08 88.48 43.84 89 42.4 89H31.12ZM36.82 50.54V83.48H40.6C41 83.48 41.32 83.36 41.56 83.12C41.84 82.84 41.98 82.5 41.98 82.1V51.92C41.98 51.52 41.84 51.2 41.56 50.96C41.32 50.68 41 50.54 40.6 50.54H36.82ZM51.913 45.02H65.113V50.72H57.613V64.28H65.113V69.74H57.613V83.3H65.113V89H51.913V45.02ZM73.2984 69.74C71.8584 69.74 70.6184 69.22 69.5784 68.18C68.5384 67.14 68.0184 65.9 68.0184 64.46V50.3C68.0184 48.86 68.5384 47.62 69.5784 46.58C70.6184 45.54 71.8584 45.02 73.2984 45.02H79.2984C80.7384 45.02 81.9784 45.54 83.0184 46.58C84.0584 47.62 84.5784 48.86 84.5784 50.3V60.56H78.8784V51.92C78.8784 51.52 78.7384 51.2 78.4584 50.96C78.2184 50.68 77.8984 50.54 77.4984 50.54H75.0984C74.6984 50.54 74.3584 50.68 74.0784 50.96C73.8384 51.2 73.7184 51.52 73.7184 51.92V62.96C73.7184 63.36 73.8384 63.7 74.0784 63.98C74.3584 64.22 74.6984 64.34 75.0984 64.34H79.2984C80.7384 64.34 81.9784 64.86 83.0184 65.9C84.0584 66.94 84.5784 68.18 84.5784 69.62V83.72C84.5784 85.16 84.0584 86.4 83.0184 87.44C81.9784 88.48 80.7384 89 79.2984 89H73.2984C71.8584 89 70.6184 88.48 69.5784 87.44C68.5384 86.4 68.0184 85.16 68.0184 83.72V73.34H73.7184V82.1C73.7184 82.5 73.8384 82.84 74.0784 83.12C74.3584 83.36 74.6984 83.48 75.0984 83.48H77.4984C77.8984 83.48 78.2184 83.36 78.4584 83.12C78.7384 82.84 78.8784 82.5 78.8784 82.1V71.12C78.8784 70.72 78.7384 70.4 78.4584 70.16C78.2184 69.88 77.8984 69.74 77.4984 69.74H73.2984ZM94.5114 89H88.8114V45.02H94.5114V89ZM106.925 66.02H115.325V83.72C115.325 85.16 114.805 86.4 113.765 87.44C112.725 88.48 111.485 89 110.045 89H104.045C102.605 89 101.365 88.48 100.325 87.44C99.2845 86.4 98.7645 85.16 98.7645 83.72V50.3C98.7645 48.86 99.2845 47.62 100.325 46.58C101.365 45.54 102.605 45.02 104.045 45.02H109.925C111.365 45.02 112.605 45.54 113.645 46.58C114.685 47.62 115.205 48.86 115.205 50.3V61.22H109.625V51.92C109.625 51.52 109.485 51.2 109.205 50.96C108.965 50.68 108.645 50.54 108.245 50.54H105.845C105.445 50.54 105.105 50.68 104.825 50.96C104.585 51.2 104.465 51.52 104.465 51.92V82.1C104.465 82.5 104.585 82.84 104.825 83.12C105.105 83.36 105.445 83.48 105.845 83.48H108.245C108.645 83.48 108.965 83.36 109.205 83.12C109.485 82.84 109.625 82.5 109.625 82.1V71.48H106.925V66.02ZM130.598 69.74H130.658L130.418 60.68V45.02H135.818V89H130.718L124.778 64.28H124.718L124.958 73.34V89H119.558V45.02H124.658L130.598 69.74ZM140.058 45.02H153.258V50.72H145.757V64.28H153.258V69.74H145.757V83.3H153.258V89H140.058V45.02ZM156.163 89V45.02H167.443C168.883 45.02 170.123 45.54 171.163 46.58C172.203 47.62 172.723 48.86 172.723 50.3V83.72C172.723 85.16 172.203 86.4 171.163 87.44C170.123 88.48 168.883 89 167.443 89H156.163ZM161.863 50.54V83.48H165.643C166.043 83.48 166.363 83.36 166.603 83.12C166.883 82.84 167.023 82.5 167.023 82.1V51.92C167.023 51.52 166.883 51.2 166.603 50.96C166.363 50.68 166.043 50.54 165.643 50.54H161.863Z" fill="white"/>
<path d="M65.3 131.128C65.3 132.184 64.9187 133.093 64.156 133.856C63.3933 134.619 62.484 135 61.428 135H53.288V102.748H61.428C62.484 102.748 63.3933 103.129 64.156 103.892C64.9187 104.655 65.3 105.564 65.3 106.62V115.948C65.3 116.535 65.2267 117.019 65.08 117.4C64.9627 117.781 64.8013 118.089 64.596 118.324C64.42 118.529 64.2293 118.676 64.024 118.764C63.8187 118.852 63.628 118.896 63.452 118.896C63.628 118.925 63.8187 118.984 64.024 119.072C64.2293 119.16 64.42 119.321 64.596 119.556C64.8013 119.761 64.9627 120.055 65.08 120.436C65.2267 120.788 65.3 121.257 65.3 121.844V131.128ZM57.468 106.796V116.872H60.108C60.4013 116.872 60.636 116.784 60.812 116.608C61.0173 116.403 61.12 116.153 61.12 115.86V107.808C61.12 107.515 61.0173 107.28 60.812 107.104C60.636 106.899 60.4013 106.796 60.108 106.796H57.468ZM57.468 120.876V130.952H60.108C60.4013 130.952 60.636 130.864 60.812 130.688C61.0173 130.483 61.12 130.233 61.12 129.94V121.888C61.12 121.595 61.0173 121.36 60.812 121.184C60.636 120.979 60.4013 120.876 60.108 120.876H57.468ZM73.1315 115.068L76.6075 102.748H80.7435L75.1555 121.096V135H70.9755V121.096L65.4315 102.748H69.5235L73.1315 115.068Z" fill="white"/>
<rect x="31" y="102" width="9" height="60" fill="white"/>
<rect x="31" y="154" width="69" height="9" fill="white"/>
<rect x="105" y="154" width="68" height="9" fill="white"/>
<rect x="164" y="128" width="9" height="35" fill="white"/>
<rect x="105" y="128" width="68" height="9" fill="white"/>
<rect x="105" y="102" width="9" height="35" fill="white"/>
<rect x="105" y="101" width="68" height="9" fill="white"/>
<rect x="91" y="102" width="9" height="60" fill="white"/>
<path d="M32.924 242V214.879H39.88C40.768 214.879 41.5327 215.2 42.174 215.841C42.8153 216.482 43.136 217.247 43.136 218.135V238.744C43.136 239.632 42.8153 240.397 42.174 241.038C41.5327 241.679 40.768 242 39.88 242H32.924ZM36.439 218.283V238.596H38.77C39.0167 238.596 39.214 238.522 39.362 238.374C39.5347 238.201 39.621 237.992 39.621 237.745V219.134C39.621 218.887 39.5347 218.69 39.362 218.542C39.214 218.369 39.0167 218.283 38.77 218.283H36.439ZM46.2397 214.879H54.3797V218.394H49.7547V226.756H54.3797V230.123H49.7547V238.485H54.3797V242H46.2397V214.879ZM59.9207 230.123C59.0327 230.123 58.268 229.802 57.6267 229.161C56.9854 228.52 56.6647 227.755 56.6647 226.867V218.135C56.6647 217.247 56.9854 216.482 57.6267 215.841C58.268 215.2 59.0327 214.879 59.9207 214.879H63.6207C64.5087 214.879 65.2734 215.2 65.9147 215.841C66.556 216.482 66.8767 217.247 66.8767 218.135V224.462H63.3617V219.134C63.3617 218.887 63.2754 218.69 63.1027 218.542C62.9547 218.369 62.7574 218.283 62.5107 218.283H61.0307C60.784 218.283 60.5744 218.369 60.4017 218.542C60.2537 218.69 60.1797 218.887 60.1797 219.134V225.942C60.1797 226.189 60.2537 226.398 60.4017 226.571C60.5744 226.719 60.784 226.793 61.0307 226.793H63.6207C64.5087 226.793 65.2734 227.114 65.9147 227.755C66.556 228.396 66.8767 229.161 66.8767 230.049V238.744C66.8767 239.632 66.556 240.397 65.9147 241.038C65.2734 241.679 64.5087 242 63.6207 242H59.9207C59.0327 242 58.268 241.679 57.6267 241.038C56.9854 240.397 56.6647 239.632 56.6647 238.744V232.343H60.1797V237.745C60.1797 237.992 60.2537 238.201 60.4017 238.374C60.5744 238.522 60.784 238.596 61.0307 238.596H62.5107C62.7574 238.596 62.9547 238.522 63.1027 238.374C63.2754 238.201 63.3617 237.992 63.3617 237.745V230.974C63.3617 230.727 63.2754 230.53 63.1027 230.382C62.9547 230.209 62.7574 230.123 62.5107 230.123H59.9207ZM73.4954 242H69.9804V214.879H73.4954V242ZM81.6435 227.829H86.8235V238.744C86.8235 239.632 86.5028 240.397 85.8615 241.038C85.2201 241.679 84.4555 242 83.5675 242H79.8675C78.9795 242 78.2148 241.679 77.5735 241.038C76.9321 240.397 76.6115 239.632 76.6115 238.744V218.135C76.6115 217.247 76.9321 216.482 77.5735 215.841C78.2148 215.2 78.9795 214.879 79.8675 214.879H83.4935C84.3815 214.879 85.1461 215.2 85.7875 215.841C86.4288 216.482 86.7495 217.247 86.7495 218.135V224.869H83.3085V219.134C83.3085 218.887 83.2221 218.69 83.0495 218.542C82.9015 218.369 82.7041 218.283 82.4575 218.283H80.9775C80.7308 218.283 80.5211 218.369 80.3485 218.542C80.2005 218.69 80.1265 218.887 80.1265 219.134V237.745C80.1265 237.992 80.2005 238.201 80.3485 238.374C80.5211 238.522 80.7308 238.596 80.9775 238.596H82.4575C82.7041 238.596 82.9015 238.522 83.0495 238.374C83.2221 238.201 83.3085 237.992 83.3085 237.745V231.196H81.6435V227.829ZM96.7351 230.123H96.7721L96.6241 224.536V214.879H99.9541V242H96.8091L93.1461 226.756H93.1091L93.2571 232.343V242H89.9271V214.879H93.0721L96.7351 230.123ZM112.486 237.745C112.486 237.992 112.56 238.201 112.708 238.374C112.88 238.522 113.09 238.596 113.337 238.596H114.817C115.063 238.596 115.261 238.522 115.409 238.374C115.581 238.201 115.668 237.992 115.668 237.745V230.9H119.109V238.744C119.109 239.632 118.788 240.397 118.147 241.038C117.505 241.679 116.741 242 115.853 242H112.227C111.339 242 110.574 241.679 109.933 241.038C109.291 240.397 108.971 239.632 108.971 238.744V218.135C108.971 217.247 109.291 216.482 109.933 215.841C110.574 215.2 111.339 214.879 112.227 214.879H115.853C116.741 214.879 117.505 215.2 118.147 215.841C118.788 216.482 119.109 217.247 119.109 218.135V225.979H115.668V219.134C115.668 218.887 115.581 218.69 115.409 218.542C115.261 218.369 115.063 218.283 114.817 218.283H113.337C113.09 218.283 112.88 218.369 112.708 218.542C112.56 218.69 112.486 218.887 112.486 219.134V237.745ZM125.398 242C124.51 242 123.745 241.679 123.104 241.038C122.462 240.397 122.142 239.632 122.142 238.744V218.135C122.142 217.247 122.462 216.482 123.104 215.841C123.745 215.2 124.51 214.879 125.398 214.879H129.098C129.986 214.879 130.75 215.2 131.392 215.841C132.033 216.482 132.354 217.247 132.354 218.135V238.744C132.354 239.632 132.033 240.397 131.392 241.038C130.75 241.679 129.986 242 129.098 242H125.398ZM125.657 237.745C125.657 237.992 125.731 238.201 125.879 238.374C126.051 238.522 126.261 238.596 126.508 238.596H127.988C128.234 238.596 128.432 238.522 128.58 238.374C128.752 238.201 128.839 237.992 128.839 237.745V219.134C128.839 218.887 128.752 218.69 128.58 218.542C128.432 218.369 128.234 218.283 127.988 218.283H126.508C126.261 218.283 126.051 218.369 125.879 218.542C125.731 218.69 125.657 218.887 125.657 219.134V237.745ZM142.413 214.879C143.301 214.879 144.066 215.2 144.707 215.841C145.349 216.482 145.669 217.247 145.669 218.135V226.756C145.669 227.471 145.447 228.113 145.003 228.68C144.584 229.247 144.054 229.642 143.412 229.864L147.852 242H144.078L139.86 230.012H138.972V242H135.457V214.879H142.413ZM138.972 218.283V226.608H141.303C141.55 226.608 141.747 226.534 141.895 226.386C142.068 226.213 142.154 226.004 142.154 225.757V219.134C142.154 218.887 142.068 218.69 141.895 218.542C141.747 218.369 141.55 218.283 141.303 218.283H138.972ZM152.541 230.012V242H149.026V214.879H155.982C156.87 214.879 157.635 215.2 158.276 215.841C158.917 216.482 159.238 217.247 159.238 218.135V226.756C159.238 227.644 158.917 228.409 158.276 229.05C157.635 229.691 156.87 230.012 155.982 230.012H152.541ZM152.541 218.283V226.608H154.872C155.119 226.608 155.316 226.534 155.464 226.386C155.637 226.213 155.723 226.004 155.723 225.757V219.134C155.723 218.887 155.637 218.69 155.464 218.542C155.316 218.369 155.119 218.283 154.872 218.283H152.541ZM165.164 230.123C164.276 230.123 163.511 229.802 162.87 229.161C162.229 228.52 161.908 227.755 161.908 226.867V218.135C161.908 217.247 162.229 216.482 162.87 215.841C163.511 215.2 164.276 214.879 165.164 214.879H168.864C169.752 214.879 170.517 215.2 171.158 215.841C171.799 216.482 172.12 217.247 172.12 218.135V224.462H168.605V219.134C168.605 218.887 168.519 218.69 168.346 218.542C168.198 218.369 168.001 218.283 167.754 218.283H166.274C166.027 218.283 165.818 218.369 165.645 218.542C165.497 218.69 165.423 218.887 165.423 219.134V225.942C165.423 226.189 165.497 226.398 165.645 226.571C165.818 226.719 166.027 226.793 166.274 226.793H168.864C169.752 226.793 170.517 227.114 171.158 227.755C171.799 228.396 172.12 229.161 172.12 230.049V238.744C172.12 239.632 171.799 240.397 171.158 241.038C170.517 241.679 169.752 242 168.864 242H165.164C164.276 242 163.511 241.679 162.87 241.038C162.229 240.397 161.908 239.632 161.908 238.744V232.343H165.423V237.745C165.423 237.992 165.497 238.201 165.645 238.374C165.818 238.522 166.027 238.596 166.274 238.596H167.754C168.001 238.596 168.198 238.522 168.346 238.374C168.519 238.201 168.605 237.992 168.605 237.745V230.974C168.605 230.727 168.519 230.53 168.346 230.382C168.198 230.209 168.001 230.123 167.754 230.123H165.164Z" fill="white"/>
<path d="M100.5 266L103.651 277.042L114.789 274.25L106.802 282.5L114.789 290.75L103.651 287.958L100.5 299L97.3488 287.958L86.2106 290.75L94.1976 282.5L86.2106 274.25L97.3488 277.042L100.5 266Z" fill="white"/>
<path d="M99.5 14L101.123 19.6883L106.861 18.25L102.747 22.5L106.861 26.75L101.123 25.3117L99.5 31L97.8766 25.3117L92.1388 26.75L96.2533 22.5L92.1388 18.25L97.8766 19.6883L99.5 14Z" fill="white"/>
<rect x="26" y="188" width="10" height="5" fill="#FF453A"/>
<rect x="36" y="188" width="10" height="5" fill="#FAD20D"/>
<rect x="46" y="188" width="10" height="5" fill="#0A84FF"/>
<rect x="56" y="188" width="10" height="5" fill="#30D158"/>
<rect x="66" y="188" width="10" height="5" fill="#5E5CE6"/>
<rect x="76" y="188" width="10" height="5" fill="#64D2FF"/>
<rect x="86" y="188" width="10" height="5" fill="#BF5AF2"/>
<rect x="96" y="188" width="10" height="5" fill="#FF375F"/>
<rect x="106" y="188" width="10" height="5" fill="#50E3C2"/>
<rect x="116" y="188" width="10" height="5" fill="#BF5AF2"/>
<rect x="126" y="188" width="10" height="5" fill="#64D2FF"/>
<rect x="136" y="188" width="10" height="5" fill="#5E5CE6"/>
<rect x="146" y="188" width="10" height="5" fill="#30D158"/>
<rect x="156" y="188" width="10" height="5" fill="#F4D249"/>
<rect x="166" y="188" width="10" height="5" fill="#FF453A"/>
</svg>
